<mxfile host="app.diagrams.net" modified="2023-05-27T15:00:20.767Z" agent="Mozilla/5.0 (Windows NT 10.0; Win64; x64) AppleWebKit/537.36 (KHTML, like Gecko) Chrome/113.0.0.0 Safari/537.36" etag="ixLSZB87AVqyW6e7xwTE" version="21.3.4" type="device">
  <diagram id="C5RBs43oDa-KdzZeNtuy" name="Page-1">
    <mxGraphModel dx="2049" dy="1064" grid="1" gridSize="10" guides="1" tooltips="1" connect="1" arrows="1" fold="1" page="1" pageScale="1" pageWidth="827" pageHeight="1169" math="0" shadow="0">
      <root>
        <mxCell id="WIyWlLk6GJQsqaUBKTNV-0" />
        <mxCell id="WIyWlLk6GJQsqaUBKTNV-1" parent="WIyWlLk6GJQsqaUBKTNV-0" />
        <mxCell id="mLYrklkr4by0zGLb6nBs-37" value="" style="edgeStyle=orthogonalEdgeStyle;rounded=0;orthogonalLoop=1;jettySize=auto;html=1;entryX=0.5;entryY=0;entryDx=0;entryDy=0;" edge="1" parent="WIyWlLk6GJQsqaUBKTNV-1" source="mLYrklkr4by0zGLb6nBs-1" target="mLYrklkr4by0zGLb6nBs-3">
          <mxGeometry relative="1" as="geometry">
            <Array as="points" />
          </mxGeometry>
        </mxCell>
        <mxCell id="mLYrklkr4by0zGLb6nBs-1" value="Start&lt;br&gt;" style="ellipse;whiteSpace=wrap;html=1;" vertex="1" parent="WIyWlLk6GJQsqaUBKTNV-1">
          <mxGeometry x="204" y="40" width="120" height="80" as="geometry" />
        </mxCell>
        <mxCell id="mLYrklkr4by0zGLb6nBs-2" value="" style="edgeStyle=orthogonalEdgeStyle;rounded=0;orthogonalLoop=1;jettySize=auto;html=1;" edge="1" parent="WIyWlLk6GJQsqaUBKTNV-1" source="mLYrklkr4by0zGLb6nBs-33" target="mLYrklkr4by0zGLb6nBs-5">
          <mxGeometry relative="1" as="geometry" />
        </mxCell>
        <mxCell id="mLYrklkr4by0zGLb6nBs-38" value="" style="edgeStyle=orthogonalEdgeStyle;rounded=0;orthogonalLoop=1;jettySize=auto;html=1;" edge="1" parent="WIyWlLk6GJQsqaUBKTNV-1" source="mLYrklkr4by0zGLb6nBs-3" target="mLYrklkr4by0zGLb6nBs-33">
          <mxGeometry relative="1" as="geometry" />
        </mxCell>
        <mxCell id="mLYrklkr4by0zGLb6nBs-3" value="i=0" style="whiteSpace=wrap;html=1;" vertex="1" parent="WIyWlLk6GJQsqaUBKTNV-1">
          <mxGeometry x="204" y="140" width="120" height="60" as="geometry" />
        </mxCell>
        <mxCell id="mLYrklkr4by0zGLb6nBs-4" value="" style="edgeStyle=orthogonalEdgeStyle;rounded=0;orthogonalLoop=1;jettySize=auto;html=1;" edge="1" parent="WIyWlLk6GJQsqaUBKTNV-1" source="mLYrklkr4by0zGLb6nBs-5" target="mLYrklkr4by0zGLb6nBs-8">
          <mxGeometry relative="1" as="geometry" />
        </mxCell>
        <mxCell id="mLYrklkr4by0zGLb6nBs-5" value="j=i+1" style="whiteSpace=wrap;html=1;" vertex="1" parent="WIyWlLk6GJQsqaUBKTNV-1">
          <mxGeometry x="204" y="340" width="120" height="60" as="geometry" />
        </mxCell>
        <mxCell id="mLYrklkr4by0zGLb6nBs-6" value="" style="edgeStyle=orthogonalEdgeStyle;rounded=0;orthogonalLoop=1;jettySize=auto;html=1;" edge="1" parent="WIyWlLk6GJQsqaUBKTNV-1" source="mLYrklkr4by0zGLb6nBs-8" target="mLYrklkr4by0zGLb6nBs-9">
          <mxGeometry relative="1" as="geometry" />
        </mxCell>
        <mxCell id="mLYrklkr4by0zGLb6nBs-7" value="" style="edgeStyle=orthogonalEdgeStyle;rounded=0;orthogonalLoop=1;jettySize=auto;html=1;" edge="1" parent="WIyWlLk6GJQsqaUBKTNV-1" source="mLYrklkr4by0zGLb6nBs-8" target="mLYrklkr4by0zGLb6nBs-12">
          <mxGeometry relative="1" as="geometry" />
        </mxCell>
        <mxCell id="mLYrklkr4by0zGLb6nBs-8" value="i&amp;lt;n-1" style="rhombus;whiteSpace=wrap;html=1;" vertex="1" parent="WIyWlLk6GJQsqaUBKTNV-1">
          <mxGeometry x="224" y="430" width="80" height="80" as="geometry" />
        </mxCell>
        <mxCell id="mLYrklkr4by0zGLb6nBs-9" value="End&lt;br&gt;" style="ellipse;whiteSpace=wrap;html=1;" vertex="1" parent="WIyWlLk6GJQsqaUBKTNV-1">
          <mxGeometry x="384" y="430" width="80" height="80" as="geometry" />
        </mxCell>
        <mxCell id="mLYrklkr4by0zGLb6nBs-10" value="H&lt;br&gt;" style="text;html=1;strokeColor=none;fillColor=none;align=center;verticalAlign=middle;whiteSpace=wrap;rounded=0;" vertex="1" parent="WIyWlLk6GJQsqaUBKTNV-1">
          <mxGeometry x="304" y="430" width="60" height="30" as="geometry" />
        </mxCell>
        <mxCell id="mLYrklkr4by0zGLb6nBs-11" value="" style="edgeStyle=orthogonalEdgeStyle;rounded=0;orthogonalLoop=1;jettySize=auto;html=1;" edge="1" parent="WIyWlLk6GJQsqaUBKTNV-1" source="mLYrklkr4by0zGLb6nBs-12" target="mLYrklkr4by0zGLb6nBs-16">
          <mxGeometry relative="1" as="geometry" />
        </mxCell>
        <mxCell id="mLYrklkr4by0zGLb6nBs-12" value="i++&lt;br&gt;" style="whiteSpace=wrap;html=1;" vertex="1" parent="WIyWlLk6GJQsqaUBKTNV-1">
          <mxGeometry x="204" y="540" width="120" height="60" as="geometry" />
        </mxCell>
        <mxCell id="mLYrklkr4by0zGLb6nBs-13" value="I&lt;br&gt;" style="text;html=1;strokeColor=none;fillColor=none;align=center;verticalAlign=middle;whiteSpace=wrap;rounded=0;" vertex="1" parent="WIyWlLk6GJQsqaUBKTNV-1">
          <mxGeometry x="204" y="510" width="60" height="30" as="geometry" />
        </mxCell>
        <mxCell id="mLYrklkr4by0zGLb6nBs-14" style="edgeStyle=orthogonalEdgeStyle;rounded=0;orthogonalLoop=1;jettySize=auto;html=1;entryX=1;entryY=0.5;entryDx=0;entryDy=0;" edge="1" parent="WIyWlLk6GJQsqaUBKTNV-1" source="mLYrklkr4by0zGLb6nBs-16" target="mLYrklkr4by0zGLb6nBs-12">
          <mxGeometry relative="1" as="geometry">
            <Array as="points">
              <mxPoint x="424" y="710" />
              <mxPoint x="424" y="570" />
            </Array>
          </mxGeometry>
        </mxCell>
        <mxCell id="mLYrklkr4by0zGLb6nBs-15" value="" style="edgeStyle=orthogonalEdgeStyle;rounded=0;orthogonalLoop=1;jettySize=auto;html=1;" edge="1" parent="WIyWlLk6GJQsqaUBKTNV-1" source="mLYrklkr4by0zGLb6nBs-16" target="mLYrklkr4by0zGLb6nBs-19">
          <mxGeometry relative="1" as="geometry" />
        </mxCell>
        <mxCell id="mLYrklkr4by0zGLb6nBs-16" value="j&amp;gt;0" style="rhombus;whiteSpace=wrap;html=1;" vertex="1" parent="WIyWlLk6GJQsqaUBKTNV-1">
          <mxGeometry x="224" y="670" width="80" height="80" as="geometry" />
        </mxCell>
        <mxCell id="mLYrklkr4by0zGLb6nBs-17" value="H" style="text;html=1;strokeColor=none;fillColor=none;align=center;verticalAlign=middle;whiteSpace=wrap;rounded=0;" vertex="1" parent="WIyWlLk6GJQsqaUBKTNV-1">
          <mxGeometry x="324" y="680" width="60" height="30" as="geometry" />
        </mxCell>
        <mxCell id="mLYrklkr4by0zGLb6nBs-18" value="" style="edgeStyle=orthogonalEdgeStyle;rounded=0;orthogonalLoop=1;jettySize=auto;html=1;" edge="1" parent="WIyWlLk6GJQsqaUBKTNV-1" source="mLYrklkr4by0zGLb6nBs-19" target="mLYrklkr4by0zGLb6nBs-22">
          <mxGeometry relative="1" as="geometry" />
        </mxCell>
        <mxCell id="mLYrklkr4by0zGLb6nBs-19" value="j++" style="whiteSpace=wrap;html=1;" vertex="1" parent="WIyWlLk6GJQsqaUBKTNV-1">
          <mxGeometry x="204" y="770" width="120" height="60" as="geometry" />
        </mxCell>
        <mxCell id="mLYrklkr4by0zGLb6nBs-20" value="" style="edgeStyle=orthogonalEdgeStyle;rounded=0;orthogonalLoop=1;jettySize=auto;html=1;" edge="1" parent="WIyWlLk6GJQsqaUBKTNV-1" target="mLYrklkr4by0zGLb6nBs-24">
          <mxGeometry relative="1" as="geometry">
            <mxPoint x="264" y="1040" as="sourcePoint" />
          </mxGeometry>
        </mxCell>
        <mxCell id="mLYrklkr4by0zGLb6nBs-21" style="edgeStyle=orthogonalEdgeStyle;rounded=0;orthogonalLoop=1;jettySize=auto;html=1;entryX=0;entryY=0.5;entryDx=0;entryDy=0;" edge="1" parent="WIyWlLk6GJQsqaUBKTNV-1" source="mLYrklkr4by0zGLb6nBs-22" target="mLYrklkr4by0zGLb6nBs-19">
          <mxGeometry relative="1" as="geometry">
            <mxPoint x="140" y="700" as="targetPoint" />
            <Array as="points">
              <mxPoint x="160" y="935" />
              <mxPoint x="160" y="800" />
            </Array>
          </mxGeometry>
        </mxCell>
        <mxCell id="mLYrklkr4by0zGLb6nBs-42" style="edgeStyle=orthogonalEdgeStyle;rounded=0;orthogonalLoop=1;jettySize=auto;html=1;entryX=0.5;entryY=0;entryDx=0;entryDy=0;" edge="1" parent="WIyWlLk6GJQsqaUBKTNV-1" source="mLYrklkr4by0zGLb6nBs-22" target="mLYrklkr4by0zGLb6nBs-24">
          <mxGeometry relative="1" as="geometry" />
        </mxCell>
        <mxCell id="mLYrklkr4by0zGLb6nBs-22" value="t[j - 1] &amp;lt; t[legkisebbszam]" style="rhombus;whiteSpace=wrap;html=1;" vertex="1" parent="WIyWlLk6GJQsqaUBKTNV-1">
          <mxGeometry x="184" y="840" width="160" height="160" as="geometry" />
        </mxCell>
        <mxCell id="mLYrklkr4by0zGLb6nBs-43" style="edgeStyle=orthogonalEdgeStyle;rounded=0;orthogonalLoop=1;jettySize=auto;html=1;entryX=0;entryY=0.5;entryDx=0;entryDy=0;" edge="1" parent="WIyWlLk6GJQsqaUBKTNV-1" source="mLYrklkr4by0zGLb6nBs-24" target="mLYrklkr4by0zGLb6nBs-19">
          <mxGeometry relative="1" as="geometry">
            <mxPoint x="110" y="800" as="targetPoint" />
            <Array as="points">
              <mxPoint x="130" y="1070" />
              <mxPoint x="130" y="800" />
            </Array>
          </mxGeometry>
        </mxCell>
        <mxCell id="mLYrklkr4by0zGLb6nBs-24" value="legkisebbszam = j" style="whiteSpace=wrap;html=1;" vertex="1" parent="WIyWlLk6GJQsqaUBKTNV-1">
          <mxGeometry x="204" y="1040" width="120" height="60" as="geometry" />
        </mxCell>
        <mxCell id="mLYrklkr4by0zGLb6nBs-29" value="I&lt;br&gt;" style="text;html=1;strokeColor=none;fillColor=none;align=center;verticalAlign=middle;whiteSpace=wrap;rounded=0;" vertex="1" parent="WIyWlLk6GJQsqaUBKTNV-1">
          <mxGeometry x="270" y="990" width="60" height="30" as="geometry" />
        </mxCell>
        <mxCell id="mLYrklkr4by0zGLb6nBs-30" value="H&lt;br&gt;" style="text;html=1;strokeColor=none;fillColor=none;align=center;verticalAlign=middle;whiteSpace=wrap;rounded=0;" vertex="1" parent="WIyWlLk6GJQsqaUBKTNV-1">
          <mxGeometry x="147" y="900" width="60" height="30" as="geometry" />
        </mxCell>
        <mxCell id="mLYrklkr4by0zGLb6nBs-36" style="edgeStyle=orthogonalEdgeStyle;rounded=0;orthogonalLoop=1;jettySize=auto;html=1;entryX=0.5;entryY=0;entryDx=0;entryDy=0;" edge="1" parent="WIyWlLk6GJQsqaUBKTNV-1" source="mLYrklkr4by0zGLb6nBs-32" target="mLYrklkr4by0zGLb6nBs-33">
          <mxGeometry relative="1" as="geometry" />
        </mxCell>
        <mxCell id="mLYrklkr4by0zGLb6nBs-32" value="n = tomb hossz" style="rounded=0;whiteSpace=wrap;html=1;" vertex="1" parent="WIyWlLk6GJQsqaUBKTNV-1">
          <mxGeometry x="204" y="210" width="120" height="60" as="geometry" />
        </mxCell>
        <mxCell id="mLYrklkr4by0zGLb6nBs-33" value="legkisebbszam = i" style="rounded=0;whiteSpace=wrap;html=1;" vertex="1" parent="WIyWlLk6GJQsqaUBKTNV-1">
          <mxGeometry x="204" y="280" width="120" height="50" as="geometry" />
        </mxCell>
      </root>
    </mxGraphModel>
  </diagram>
</mxfile>
